<?xml version="1.0" encoding="utf-8"?>
<!-- Generator: Adobe Illustrator 16.0.0, SVG Export Plug-In . SVG Version: 6.00 Build 0)  -->
<!DOCTYPE svg PUBLIC "-//W3C//DTD SVG 1.1//EN" "http://www.w3.org/Graphics/SVG/1.1/DTD/svg11.dtd">
<svg version="1.1" id="Layer_1" xmlns="http://www.w3.org/2000/svg" xmlns:xlink="http://www.w3.org/1999/xlink" x="0px" y="0px"
	 width="991.657px" height="1060.585px" viewBox="0 0 991.657 1060.585" enable-background="new 0 0 991.657 1060.585"
	 xml:space="preserve">
<path fill="#FFFFFF" d="M0.004-0.038h499.53c-32.42,0-69.38,6.79-109.56,25.63c-0.94,0.45-1.89,0.9-2.84,1.36l-6.8,3.28
	c-2.26,1.08-4.52,2.18-6.77,3.25l-13.45,6.48l-13.29,6.41c-3.3,1.58-6.59,3.17-9.87,4.75l-9.77,4.7l-12.85,6.2
	c-1.07,0.51-2.12,1.02-3.18,1.53l-12.58,6.05c-7.27,3.51-14.42,6.96-21.43,10.32l-5.59,2.69c-15.98,7.7-31.19,15.02-45.41,21.87
	l-5.24,2.53c-6.93,3.33-13.6,6.55-20.01,9.63l-4.74,2.29c-6.26,3.01-12.24,5.89-17.91,8.63l-5.84,2.81
	c-7.76,3.73-14.87,7.16-21.25,10.23l-2.97,1.43c-7.64,3.68-14.14,6.81-19.35,9.32l-1.95,0.94c-8.26,3.98-12.75,6.14-12.75,6.14
	s0,0-0.01,0.02c-1.48,0.89-96.09,58.83-99.33,146.17c-0.03,0.68-0.05,1.38-0.09,2.1c-0.02,0.72-0.04,1.45-0.07,2.19
	c-0.06,1.47-0.11,3-0.18,4.59c-0.32,8.71-0.7,18.92-1.13,30.31c-0.08,1.93-0.15,3.91-0.22,5.92c-0.01,0.27-0.02,0.54-0.03,0.82
	c-0.08,2.01-0.15,4.05-0.23,6.13c-0.12,3.34-0.24,6.75-0.38,10.23c-0.08,2.31-0.17,4.65-0.26,7.02c-0.17,4.75-0.36,9.63-0.54,14.6
	c-0.1,2.49-0.19,5.02-0.29,7.54c-0.28,7.62-0.57,15.45-0.87,23.44c-0.2,5.32-0.39,10.71-0.6,16.15
	c-2.91,78.3-6.25,167.77-8.21,220.37l-0.09,2.34c-0.98,26.54-1.6,43.1-1.6,43.1V-0.038z"/>
<path fill="#FFFFFF" d="M991.655-0.038v365.83c-0.17-1.36-11.38-88.33-62.82-123.08c-6.47-4.37-15.899-10.75-27.439-18.55
	l-4.431-2.99c-8.279-5.6-17.51-11.84-27.42-18.54l-5.12-3.45c-2.88-1.95-5.8-3.93-8.79-5.94l-5.76-3.9
	c-4.84-3.27-9.79-6.61-14.82-10.01c-4.029-2.72-8.09-5.47-12.199-8.25l-6.19-4.18c-1.04-0.7-2.07-1.4-3.11-2.11l-9.39-6.34
	c-2.09-1.42-4.2-2.83-6.3-4.26l-9.47-6.4l-6.32-4.26c-1.05-0.72-2.1-1.43-3.15-2.14l-18.819-12.72c-1.04-0.71-2.08-1.41-3.12-2.1
	l-6.17-4.17c-4.09-2.78-8.16-5.53-12.17-8.23c-5.011-3.39-9.94-6.72-14.761-9.98l-8.58-5.79c-1.859-1.27-3.72-2.52-5.56-3.76
	l-5.45-3.68l-5.3-3.58l-5.15-3.49l-5.01-3.38l-4.83-3.27c-1.58-1.07-3.14-2.12-4.66-3.15l-10.83-7.32l-5.869-3.96
	c-2.49-1.69-4.851-3.28-7.03-4.75l-4.65-3.15c-0.96-0.65-1.89-1.28-2.77-1.87l-2.51-1.69c-1.181-0.8-2.261-1.54-3.221-2.19
	c-0.97-0.65-1.819-1.23-2.58-1.73c-0.739-0.51-1.359-0.93-1.87-1.27c-0.159-0.12-0.319-0.22-0.46-0.31
	c-0.279-0.2-0.51-0.36-0.699-0.47c-0.25-0.17-0.38-0.26-0.38-0.26l-20.41-13.78c-22.811-13.28-63.6-31.38-116.53-31.38H991.655z"/>
<path fill="#FFFFFF" d="M991.645,366.252c0-0.3,0.01-0.44,0.01-0.44v694.82H0.004v-358.85c0.21,4.92,4.06,69.779,75.36,118.12
	c0.07,0.05,0.15,0.1,0.24,0.159c54.06,36.54,207.65,140.33,287.59,194.36c1.72,1.16,3.4,2.311,5.05,3.42
	c0.83,0.561,1.65,1.11,2.46,1.65c2.42,1.64,4.75,3.22,7,4.74c1.5,1.01,2.96,2,4.38,2.96c1.42,0.949,2.8,1.89,4.14,2.79
	c8,5.409,14.49,9.8,19.05,12.88c1.53,1.029,2.83,1.91,3.93,2.66c0.54,0.359,1.02,0.689,1.45,0.979c0.43,0.28,0.8,0.54,1.11,0.74
	c0.31,0.22,0.57,0.39,0.75,0.52c0.1,0.05,0.17,0.11,0.24,0.16c0.12,0.08,0.19,0.12,0.19,0.12s85.1,30.97,158.25-4.26
	c13.18-6.33,33.09-15.931,56.899-27.391l6.11-2.949c2.12-1.021,4.26-2.061,6.43-3.101c2.19-1.06,4.391-2.109,6.61-3.189
	c2.22-1.07,4.47-2.15,6.74-3.24c2.279-1.09,4.56-2.2,6.87-3.311c3.42-1.649,6.89-3.31,10.39-5c0.1-0.05,0.2-0.09,0.29-0.14
	c2.32-1.12,4.65-2.25,7-3.38c27.6-13.271,57.21-27.54,86.01-41.42c2.51-1.2,5.01-2.41,7.5-3.61
	c80.95-38.97,153.45-73.899,153.45-73.899s0.01,0,0.03-0.011c1.46-0.88,48.2-29.22,49.97-73.1c0.01-0.07,0-0.12,0.01-0.19
	c0.061-1.739,0.15-4.02,0.25-6.77l0.061-1.71c0.5-13.54,1.38-37.1,2.47-66.43c0.05-1.271,0.09-2.561,0.14-3.851
	c0.971-25.93,2.09-56.069,3.271-87.63l0.35-9.5c0.311-7.96,0.601-15.979,0.9-24.03c0.24-6.449,0.479-12.899,0.72-19.35l0.36-9.68
	c0.35-9.66,0.71-19.28,1.069-28.801c0.091-2.46,0.17-4.92,0.271-7.35c2.82-75.82,5.34-143.17,6.07-163.03l0.029-0.79
	c0.04-1.03,0.08-1.91,0.101-2.64l0.029-0.75l0.021-0.62c0-0.09,0.01-0.17,0.01-0.25L991.645,366.252z"/>
</svg>
