
<svg version="1.1" id="Layer_1" xmlns="http://www.w3.org/2000/svg" x="0px" y="0px"
	 width="991.657px" height="1060.585px" viewBox="0 0 991.657 1060.585" enable-background="new 0 0 991.657 1060.585"
	 >
<path fill="#FFFFFF" stroke="#000000" stroke-miterlimit="10" d="M991.655,365.794c0.002,0.013,0.002,0.013,0.002,0.013
	s-0.01,0.148-0.014,0.443l-0.019,0.417c-0.005,0.081-0.007,0.162-0.01,0.255l-0.021,0.618l-0.031,0.752
	c-0.021,0.725-0.063,1.613-0.102,2.634l-0.026,0.793c-0.735,19.862-3.248,87.207-6.067,163.032
	c-0.099,2.434-0.182,4.893-0.277,7.352c-0.356,9.516-0.714,19.138-1.067,28.799l-0.363,9.677
	c-0.237,6.451-0.476,12.902-0.714,19.354c-0.303,8.049-0.596,16.073-0.896,24.028l-0.357,9.501
	c-1.181,31.558-2.301,61.702-3.265,87.626c-0.048,1.289-0.096,2.58-0.146,3.857c-1.084,29.324-1.969,52.883-2.463,66.428
	l-0.063,1.708c-0.102,2.755-0.192,5.026-0.254,6.774c-0.005,0.066,0.002,0.12-0.004,0.187c-1.775,43.883-48.51,72.217-49.969,73.096
	c-0.024,0.016-0.038,0.017-0.038,0.017s-72.498,34.924-153.443,73.898c-2.497,1.2-4.994,2.412-7.503,3.611
	c-28.803,13.872-58.412,28.145-86.013,41.422c-2.348,1.128-4.682,2.254-6.992,3.378c-0.099,0.051-0.199,0.09-0.298,0.141
	c-3.502,1.688-6.968,3.35-10.384,5c-2.311,1.11-4.596,2.218-6.869,3.309c-2.272,1.092-4.521,2.169-6.745,3.242
	c-2.222,1.072-4.421,2.13-6.607,3.185c-2.174,1.041-4.309,2.079-6.434,3.099l-6.108,2.954
	c-23.813,11.462-43.722,21.056-56.901,27.393c-73.145,35.226-158.25,4.258-158.25,4.258s-0.071-0.045-0.185-0.126
	c-0.071-0.046-0.143-0.104-0.241-0.159c-0.186-0.126-0.441-0.299-0.754-0.516c-0.313-0.205-0.683-0.457-1.109-0.742
	c-0.426-0.286-0.91-0.617-1.451-0.982c-1.095-0.742-2.403-1.622-3.925-2.652c-4.565-3.086-11.051-7.475-19.057-12.88
	c-1.337-0.901-2.717-1.84-4.139-2.798c-1.422-0.961-2.873-1.943-4.38-2.961c-2.247-1.52-4.58-3.099-6.998-4.733
	c-0.811-0.547-1.634-1.095-2.459-1.655c-1.649-1.107-3.328-2.252-5.049-3.418C283.254,960.388,129.66,856.599,75.603,820.063
	c-0.085-0.057-0.171-0.113-0.241-0.158C4.062,771.562,0.216,706.705,0,701.779c0.007-0.056,0.002-0.096,0-0.12
	c0.008-0.043,0.005-0.069,0.002-0.096c0.005-0.067,0.002-0.094,0.002-0.094s0.618-16.557,1.603-43.099l0.084-2.338
	c1.961-52.603,5.303-142.069,8.216-220.367c0.21-5.443,0.401-10.832,0.599-16.153c0.295-7.996,0.585-15.817,0.872-23.438
	c0.101-2.527,0.19-5.053,0.283-7.54c0.187-4.973,0.37-9.851,0.542-14.608c0.093-2.366,0.177-4.705,0.264-7.016
	c0.135-3.481,0.251-6.895,0.378-10.228c0.074-2.082,0.153-4.125,0.223-6.127c0.019-0.283,0.029-0.552,0.037-0.82
	c0.068-2.015,0.142-3.99,0.22-5.927c0.429-11.383,0.809-21.597,1.128-30.305c0.066-1.587,0.124-3.12,0.177-4.597
	c0.032-0.74,0.053-1.464,0.075-2.19c0.035-0.714,0.06-1.412,0.085-2.097c3.246-87.342,97.853-145.28,99.335-146.173
	c0.012-0.014,0.012-0.014,0.012-0.014s4.483-2.164,12.743-6.143l1.951-0.934c5.215-2.517,11.71-5.648,19.35-9.328l2.969-1.426
	c6.386-3.066,13.489-6.497,21.252-10.23l5.837-2.815c5.677-2.73,11.65-5.615,17.91-8.626l4.745-2.288
	c6.41-3.082,13.079-6.301,20.011-9.631l5.24-2.531c14.222-6.849,29.425-14.171,45.411-21.866l5.589-2.693
	c7.006-3.365,14.161-6.815,21.426-10.316l12.583-6.058c1.055-0.51,2.111-1.019,3.179-1.53l12.854-6.195l9.763-4.701
	c3.279-1.583,6.57-3.167,9.875-4.753l13.29-6.406l13.451-6.478c2.248-1.076,4.509-2.167,6.77-3.257l6.794-3.275
	c0.957-0.458,1.9-0.915,2.846-1.359c105.771-49.605,189.305-15.67,226.091,5.746l20.406,13.78c0,0,0.129,0.093,0.385,0.264
	c0.183,0.113,0.411,0.273,0.697,0.468c0.141,0.091,0.297,0.193,0.454,0.309c0.512,0.342,1.138,0.766,1.878,1.269
	c0.754,0.501,1.605,1.085,2.573,1.737c0.968,0.651,2.048,1.383,3.228,2.183l2.504,1.692c0.882,0.594,1.808,1.223,2.774,1.874
	l4.65,3.143c2.176,1.475,4.535,3.062,7.026,4.754l5.872,3.965l10.824,7.313c1.521,1.028,3.085,2.079,4.663,3.155l4.835,3.268
	l5.008,3.383l5.148,3.486l5.305,3.576l5.446,3.679c1.835,1.247,3.697,2.491,5.562,3.76l8.574,5.793
	c4.821,3.257,9.756,6.595,14.763,9.977c4.011,2.708,8.077,5.451,12.174,8.229l6.171,4.171c1.04,0.696,2.077,1.393,3.117,2.103
	l18.814,12.719c1.052,0.709,2.104,1.417,3.157,2.138l6.314,4.262l9.472,6.399c2.104,1.429,4.21,2.846,6.301,4.264l9.386,6.343
	c1.04,0.709,2.077,1.406,3.114,2.102l6.187,4.184c4.11,2.777,8.178,5.532,12.203,8.251c5.034,3.394,9.983,6.742,14.819,10.011
	l5.76,3.898c2.986,2.009,5.915,3.986,8.79,5.942l5.118,3.45c9.912,6.696,19.143,12.937,27.42,18.538l4.437,2.993
	c11.534,7.794,20.964,14.171,27.435,18.549C980.272,277.466,991.485,364.436,991.655,365.794z"/>
</svg>
